<?xml version="1.0" encoding="utf-8"?>
<!-- Generator: Adobe Illustrator 23.0.1, SVG Export Plug-In . SVG Version: 6.00 Build 0)  -->
<svg version="1.1" id="Слой_1" xmlns="http://www.w3.org/2000/svg" xmlns:xlink="http://www.w3.org/1999/xlink" x="0px" y="0px"
	 viewBox="0 0 728.5 728.5" style="enable-background:new 0 0 728.5 728.5;" xml:space="preserve">
<style type="text/css">
	.st0{fill:#C2C55C;}
	.st1{fill:#2C3F00;}
</style>
<path class="st0" d="M646.4,182.4L646.4,182.4c0-9.3-4.1-17.7-10.7-23.3c-5-3.7-11.4-6.3-18.7-7.4c-0.4,0-0.9,0-1.4,0h-16.1H132
	h-11.4c-7.4,0-14.2,2.6-19.5,7c-0.1,0.1-0.2,0.2-0.3,0.3c-10,9-10.8,21.1-10.9,23.5l278.3,173.4L646.4,182.4z"/>
<path class="st0" d="M368.1,382.1L89.8,208.7v346.7c0,17,13.8,30.7,30.7,30.7h495.1c17,0,30.7-13.8,30.7-30.7V208.7L368.1,382.1z
	 M368.7,464.1c-25.6-11.5-40.8-30.1-38.4-46.1c1.1-7.5,6.6-18,15.4-19.2c8.8-1.3,19.5,7,23.4,21.1c2.4-13.9,11.8-22.8,20.2-22.4
	c9.1,0.5,15.4,11.8,16.7,19.9C408.5,433.5,393.8,452.5,368.7,464.1z"/>
<path class="st1" d="M785.9,287"/>
</svg>
