<?xml version="1.0" encoding="utf-8"?>
<!-- Generator: Adobe Illustrator 23.0.1, SVG Export Plug-In . SVG Version: 6.00 Build 0)  -->
<svg version="1.1" id="Слой_1" xmlns="http://www.w3.org/2000/svg" xmlns:xlink="http://www.w3.org/1999/xlink" x="0px" y="0px"
	 viewBox="0 0 728.5 728.5" style="enable-background:new 0 0 728.5 728.5;" xml:space="preserve">
<style type="text/css">
	.st0{fill:#C2C55C;}
</style>
<path class="st0" d="M351.5,551.3c-47.9,0-86.7,38.8-86.7,86.7c0,47.9,38.8,86.7,86.7,86.7s86.7-38.8,86.7-86.7
	C438.3,590.1,399.4,551.3,351.5,551.3z M351.5,695.9c-31.9,0-57.8-25.9-57.8-57.8c0-31.9,25.9-57.8,57.8-57.8
	c31.9,0,57.8,25.9,57.8,57.8C409.4,670,383.5,695.9,351.5,695.9z"/>
<path class="st0" d="M172.3,302c-37,0-67.1,30-67.1,67.1s30,67.1,67.1,67.1s67.1-30,67.1-67.1S209.3,302,172.3,302z M172.3,413.8
	c-24.7,0-44.7-20-44.7-44.7c0-24.7,20-44.7,44.7-44.7c24.7,0,44.7,20,44.7,44.7C217,393.8,197,413.8,172.3,413.8z"/>
<path class="st0" d="M270.4,82.2c-28.2,0-51,22.9-51,51s22.9,51,51,51c28.2,0,51-22.9,51-51S298.6,82.2,270.4,82.2z M270.4,167.3
	c-18.8,0-34-15.2-34-34c0-18.8,15.2-34,34-34c18.8,0,34,15.2,34,34C304.4,152.1,289.2,167.3,270.4,167.3z"/>
<path class="st0" d="M70.3,82.2c-28.2,0-51,22.9-51,51s22.9,51,51,51s51-22.9,51-51S98.5,82.2,70.3,82.2z M70.3,167.3
	c-18.8,0-34-15.2-34-34c0-18.8,15.2-34,34-34c18.8,0,34,15.2,34,34C104.4,152.1,89.1,167.3,70.3,167.3z"/>
<circle class="st0" cx="351.5" cy="493.4" r="13.5"/>
<circle class="st0" cx="351.8" cy="529.4" r="13.5"/>
<circle class="st0" cx="314.8" cy="493.4" r="13.5"/>
<circle class="st0" cx="388.5" cy="493.4" r="13.5"/>
<circle class="st0" cx="459.5" cy="493.4" r="13.5"/>
<circle class="st0" cx="422.8" cy="493.4" r="13.5"/>
<circle class="st0" cx="496.4" cy="493.4" r="13.5"/>
<circle class="st0" cx="530.6" cy="493.4" r="13.5"/>
<circle class="st0" cx="530.6" cy="458.1" r="13.5"/>
<circle class="st0" cx="243.6" cy="493.4" r="13.5"/>
<circle class="st0" cx="206.9" cy="493.4" r="13.5"/>
<circle class="st0" cx="172.3" cy="493.4" r="13.5"/>
<circle class="st0" cx="172" cy="458.1" r="13.5"/>
<circle class="st0" cx="172" cy="280.1" r="13.5"/>
<circle class="st0" cx="280.5" cy="493.4" r="13.5"/>
<circle class="st0" cx="207.6" cy="244.7" r="13.5"/>
<circle class="st0" cx="136.3" cy="244.7" r="13.5"/>
<circle class="st0" cx="173.2" cy="244.7" r="13.5"/>
<circle class="st0" cx="274.2" cy="243.2" r="13.5"/>
<circle class="st0" cx="274.2" cy="211.1" r="13.5"/>
<circle class="st0" cx="239.8" cy="243.2" r="13.5"/>
<circle class="st0" cx="66.6" cy="244.7" r="13.5"/>
<circle class="st0" cx="66.6" cy="211.1" r="13.5"/>
<circle class="st0" cx="103.6" cy="244.7" r="13.5"/>
<path class="st0" d="M528,299.5c-37,0-67.1,30-67.1,67.1s30,67.1,67.1,67.1c37,0,67.1-30,67.1-67.1S565,299.5,528,299.5z M528,411.2
	c-24.7,0-44.7-20-44.7-44.7c0-24.7,20-44.7,44.7-44.7c24.7,0,44.7,20,44.7,44.7C572.7,391.2,552.7,411.2,528,411.2z"/>
<path class="st0" d="M626.1,79.7c-28.2,0-51,22.9-51,51s22.9,51,51,51s51-22.9,51-51S654.3,79.7,626.1,79.7z M626.1,164.7
	c-18.8,0-34-15.2-34-34c0-18.8,15.2-34,34-34c18.8,0,34,15.2,34,34C660.1,149.5,644.9,164.7,626.1,164.7z"/>
<path class="st0" d="M426,79.7c-28.2,0-51,22.9-51,51s22.9,51,51,51s51-22.9,51-51S454.2,79.7,426,79.7z M426,164.7
	c-18.8,0-34-15.2-34-34c0-18.8,15.2-34,34-34c18.8,0,34,15.2,34,34C460.1,149.5,444.8,164.7,426,164.7z"/>
<circle class="st0" cx="527.7" cy="277.5" r="13.5"/>
<circle class="st0" cx="563.3" cy="242.2" r="13.5"/>
<circle class="st0" cx="492" cy="242.2" r="13.5"/>
<circle class="st0" cx="528.9" cy="242.2" r="13.5"/>
<circle class="st0" cx="629.9" cy="240.6" r="13.5"/>
<circle class="st0" cx="629.9" cy="208.6" r="13.5"/>
<circle class="st0" cx="595.5" cy="240.6" r="13.5"/>
<circle class="st0" cx="422.3" cy="242.2" r="13.5"/>
<circle class="st0" cx="422.3" cy="208.6" r="13.5"/>
<circle class="st0" cx="459.3" cy="242.2" r="13.5"/>
</svg>
